HIERARCHY
ROOT Pelvis
{
	OFFSET 0.000000 0.000000 0.000000
	CHANNELS 6 Xposition Yposition Zposition Zrotation Yrotation Xrotation 
	JOINT Left_hip
	{
		OFFSET 0.070241 -0.085575 -0.010474
		CHANNELS 3 Zrotation Yrotation Xrotation
		JOINT Left_knee
		{
			OFFSET 0.032125 -0.356873 -0.000555
			CHANNELS 3 Zrotation Yrotation Xrotation
			JOINT Left_ankle
			{
				OFFSET -0.010961 -0.370212 -0.042278
				CHANNELS 3 Zrotation Yrotation Xrotation
				JOINT Left_foot
				{
					OFFSET 0.023322 -0.052281 0.110104
					CHANNELS 3 Zrotation Yrotation Xrotation
					End Site
					{
						OFFSET 0.000000 0.000000 0.000000
					}
				}
			}
		}
	}
	JOINT Right_hip
	{
		OFFSET -0.068518 -0.084320 -0.007402
		CHANNELS 3 Zrotation Yrotation Xrotation
		JOINT Right_knee
		{
			OFFSET -0.037345 -0.364815 -0.003619
			CHANNELS 3 Zrotation Yrotation Xrotation
			JOINT Right_ankle
			{
				OFFSET 0.013394 -0.370006 -0.039954
				CHANNELS 3 Zrotation Yrotation Xrotation
				JOINT Right_foot
				{
					OFFSET -0.019600 -0.045455 0.113223
					CHANNELS 3 Zrotation Yrotation Xrotation
					End Site
					{
						OFFSET 0.000000 0.000000 0.000000
					}
				}
			}
		}
	}
	JOINT Spine1
	{
		OFFSET -0.002404 0.098129 -0.018169
		CHANNELS 3 Zrotation Yrotation Xrotation
		JOINT Spine2
		{
			OFFSET 0.003989 0.127209 -0.001742
			CHANNELS 3 Zrotation Yrotation Xrotation
			JOINT Spine3
			{
				OFFSET 0.001758 0.046641 0.023475
				CHANNELS 3 Zrotation Yrotation Xrotation
				JOINT Neck
				{
					OFFSET -0.003759 0.194901 -0.039982
					CHANNELS 3 Zrotation Yrotation Xrotation
					JOINT Head
					{
						OFFSET 0.003999 0.063756 0.047665
						CHANNELS 3 Zrotation Yrotation Xrotation
						End Site
						{
							OFFSET 0.000000 0.000000 0.000000
						}
					}
				}
				JOINT Left_collar
				{
					OFFSET 0.071816 0.109048 -0.028973
					CHANNELS 3 Zrotation Yrotation Xrotation
					JOINT Left_shoulder
					{
						OFFSET 0.084027 0.032269 -0.006525
						CHANNELS 3 Zrotation Yrotation Xrotation
						JOINT Left_elbow
						{
							OFFSET 0.243854 -0.013992 -0.025905
							CHANNELS 3 Zrotation Yrotation Xrotation
							JOINT Left_wrist
							{
								OFFSET 0.232156 0.008196 -0.000339
								CHANNELS 3 Zrotation Yrotation Xrotation
								JOINT Left_palm
								{
									OFFSET 0.075377 -0.009461 -0.012494
									CHANNELS 3 Zrotation Yrotation Xrotation
									End Site
									{
										OFFSET 0.000000 0.000000 0.000000
									}
								}
							}
						}
					}
				}
				JOINT Right_collar
				{
					OFFSET -0.073768 0.107001 -0.033755
					CHANNELS 3 Zrotation Yrotation Xrotation
					JOINT Right_shoulder
					{
						OFFSET -0.086837 0.032868 -0.009431
						CHANNELS 3 Zrotation Yrotation Xrotation
						JOINT Right_elbow
						{
							OFFSET -0.236446 -0.012544 -0.018747
							CHANNELS 3 Zrotation Yrotation Xrotation
							JOINT Right_wrist
							{
								OFFSET -0.236110 0.006124 -0.004327
								CHANNELS 3 Zrotation Yrotation Xrotation
								JOINT Right_palm
								{
									OFFSET -0.074800 -0.006875 -0.009610
									CHANNELS 3 Zrotation Yrotation Xrotation
									End Site
									{
										OFFSET 0.000000 0.000000 0.000000
									}
								}
							}
						}
					}
				}
			}
		}
	}
}
MOTION
Frames: 13
Frame Time: 0.100000
0.000000 0.000000 0.000000 177.911582 21.870159 -10.375905 1.062878 6.014456 2.818771 0.371367 -9.857729 -4.268680 -5.036946 25.476895 -1.957877 11.074344 -5.825539 -2.358004 1.452775 -4.485516 4.355836 -1.547141 10.099049 -1.353751 1.241379 -23.402894 -6.592681 1.988238 8.131039 4.886389 -1.205649 1.604523 0.646095 0.544534 -3.592014 -4.289947 -0.267679 1.186564 1.371983 -3.587694 -5.691064 5.690939 5.466956 -2.380885 -1.189155 -0.764613 8.229970 -8.726257 8.984340 -11.022040 -18.622882 1.156446 11.570066 -4.572018 -2.609947 -4.716000 36.078906 0.692643 -6.152271 -1.000880 4.861725 -3.660737 -8.111790 -6.550043 8.627648 -22.445439 -9.424731 -10.551203 -8.538347 -1.518042 3.501450 31.909238 5.051761 6.326002 -1.081306 
0.004091 -0.000477 0.006510 177.969564 22.076664 -10.565938 1.428183 6.143476 3.146940 0.349961 -9.996828 -3.941610 -5.216880 25.382597 -2.181044 11.142498 -5.780587 -2.397601 1.702786 -4.557658 5.004650 -1.479490 10.038730 -1.495897 0.749709 -23.418020 -6.879038 2.739931 7.910978 5.215050 -1.340808 1.615929 0.297649 0.524553 -3.600972 -3.926282 -0.317966 1.129375 1.268064 -3.328422 -5.389890 5.719067 5.155139 -2.381464 -0.976031 -0.954989 8.158859 -8.653106 8.933375 -11.162660 -18.586020 1.272666 11.303380 -4.828591 -1.980718 -5.064090 35.962924 0.654100 -6.081092 -0.868717 5.012594 -3.594003 -8.038331 -6.634096 8.634020 -22.368157 -9.363392 -10.639294 -8.491946 -1.896901 3.690869 31.704328 5.083530 6.279801 -0.752888 
0.009406 -0.001195 0.012152 178.041603 22.323850 -10.803088 1.742226 5.991717 2.857887 0.240585 -10.077857 -2.522669 -5.310505 25.463187 -2.437222 11.284046 -5.744916 -2.607961 2.077867 -4.453747 5.277675 -1.405887 10.014639 -0.980656 0.285372 -23.599161 -7.158316 3.130036 7.776563 5.357718 -1.464697 1.646191 0.199443 0.522045 -3.609767 -3.707179 -0.333429 1.072945 1.084517 -3.051247 -5.309340 5.635703 5.097185 -2.472085 -0.818153 -1.093683 8.109807 -8.524619 8.835219 -11.272727 -18.571734 1.320108 11.352150 -4.829117 -1.863719 -5.131004 35.956114 0.563426 -6.046966 -0.732102 5.054576 -3.528140 -7.944753 -6.575931 8.622283 -22.282080 -9.359044 -10.729641 -8.397149 -1.998785 3.789671 31.324837 5.220995 6.254219 -0.379265 
0.018688 -0.001170 0.013716 178.089660 22.640342 -10.822442 2.132269 5.880959 1.494355 -0.013784 -9.866149 -0.236380 -5.373494 25.284520 -2.445803 11.196176 -5.495021 -3.110007 2.618874 -4.385208 4.700066 -1.171366 9.902313 0.113989 0.124909 -23.849275 -7.654374 2.841386 7.761301 5.401270 -1.490350 1.657228 0.926442 0.438718 -3.600195 -4.606360 -0.264682 1.054785 1.165333 -3.007698 -5.559870 5.432636 5.309920 -2.849697 -0.836097 -0.896822 8.010239 -8.756464 8.527604 -11.585175 -18.560217 1.355733 11.720970 -4.760248 -1.973837 -4.830560 35.829581 0.366637 -6.119056 -0.610135 4.752642 -3.440987 -8.163466 -6.336550 8.675333 -22.224663 -9.402166 -11.092386 -8.083141 -2.035632 3.583048 31.008408 5.456643 6.329685 -0.319003 
0.031486 -0.000582 0.013457 178.154833 22.767900 -10.603683 2.662518 5.843879 0.258999 -0.032858 -9.645219 0.835960 -5.514309 25.175094 -1.879728 11.215407 -5.363203 -3.557461 3.135442 -4.383524 3.882355 -0.724472 9.733302 0.636252 0.066507 -23.813776 -7.885646 2.539384 7.835054 5.485399 -1.779957 1.852451 1.368089 0.326144 -3.437069 -4.874154 -0.181494 1.108808 1.173688 -2.871235 -5.528270 5.209776 5.643273 -3.250363 -0.692357 -0.859692 7.945122 -8.885898 8.594705 -11.897782 -18.532072 1.360001 11.079906 -4.795515 -1.811824 -4.967361 35.473235 0.135216 -6.133562 -0.772729 4.746192 -3.402776 -8.150551 -5.972680 8.443457 -22.155649 -9.496984 -10.945792 -8.497298 -2.270701 3.652515 29.968286 5.670105 6.363522 -0.238813 
0.046529 0.000352 0.007758 178.162251 23.086330 -10.378522 3.154207 5.853058 -1.437407 -0.084173 -9.498726 1.785109 -5.494473 25.220721 -0.541942 11.250169 -5.412501 -4.623426 3.581665 -4.386969 1.183334 0.280006 9.301881 3.890042 0.620180 -23.925495 -8.462770 1.185162 8.544061 5.218946 -1.930114 1.772894 2.570853 0.049736 -3.278243 -5.687109 -0.148765 1.171156 1.708973 -3.408554 -5.472539 4.897235 5.898231 -3.103459 0.633695 -0.602670 7.906421 -8.919770 7.979839 -12.046599 -18.794894 1.397523 10.504399 -5.364434 -1.510741 -4.509751 34.637130 -0.272116 -6.317270 -0.871890 4.716668 -3.323119 -7.935053 -5.039897 8.552466 -22.194038 -9.551725 -11.098760 -8.616534 -2.529846 3.363192 29.396319 5.908858 6.513096 -0.284930 
0.061648 0.005127 -0.007378 178.451123 23.484759 -10.478736 3.015371 4.999083 -5.819481 -0.912730 -9.255077 7.653427 -4.930573 25.686731 -0.220876 11.218139 -5.365576 -6.417457 3.733576 -4.074074 -3.780551 1.564156 8.750127 11.322470 1.964631 -24.346129 -10.237928 -2.005091 9.763293 4.038858 -2.039700 1.764831 5.266125 -0.406850 -3.221310 -6.813599 -0.127284 1.310665 2.904653 -4.604826 -5.533034 4.680327 7.031520 -2.021028 2.163101 -0.668247 7.645483 -8.859419 6.113921 -12.312863 -18.640412 1.505431 9.480520 -5.475085 -0.679675 -4.045378 32.715681 -1.294683 -6.522139 -0.949308 4.697189 -3.312822 -7.765809 -2.460997 8.616167 -22.016555 -9.869550 -9.655736 -9.757525 -3.416259 3.575169 26.655950 6.874608 6.581405 -0.092860 
0.073643 0.021858 -0.025880 178.530405 23.691464 -11.850516 3.181757 2.598954 -12.359790 -2.964767 -8.808433 19.921034 -3.894336 27.150799 -2.882223 11.327544 -5.347731 -7.753690 4.073763 -3.170508 -8.324713 3.292090 8.302985 20.398314 2.063595 -25.467442 -14.721435 -3.868760 11.185195 3.845824 -2.024359 2.297738 8.893562 -0.647459 -3.254526 -7.314339 0.005825 1.513761 4.024405 -5.734165 -6.819579 3.736211 8.013929 -0.780139 4.834413 -2.397120 6.306649 -7.873269 2.729212 -13.729837 -18.135612 2.890884 6.660866 -5.834133 2.804017 -2.974036 29.425898 -3.119284 -6.911734 -0.277901 6.193484 -2.134409 -7.081731 0.675851 9.058967 -21.742148 -10.462206 -7.146430 -10.856670 -6.428487 3.318998 23.412617 8.801487 6.955398 0.883749 
0.079975 0.042226 -0.040659 178.093150 23.426342 -14.528024 3.602966 0.844629 -16.596718 -3.914668 -7.894613 30.781507 -3.478896 27.120491 -4.223298 12.202294 -4.021616 -9.643930 4.152008 -2.144851 -10.859083 4.768763 6.101064 28.372795 -0.105964 -24.823287 -17.119907 -2.562839 10.765565 4.133251 -1.324136 2.536822 10.995612 -0.404691 -3.002824 -4.131399 -0.194723 1.603852 2.775671 -5.189950 -7.494154 2.328286 7.440488 -0.601379 6.310729 -8.437451 4.339649 -6.335512 -5.279598 -15.689507 -13.715948 5.144247 -1.131868 -10.756066 9.941015 -5.047742 20.386140 -6.344873 -6.652527 0.852179 10.872193 0.459549 -5.354385 6.621210 10.144597 -17.744919 -11.169622 -0.911089 -14.968754 -13.053112 5.473494 15.443561 11.332497 6.649078 3.076526 
0.084365 0.063105 -0.053666 178.448294 22.717720 -16.247757 3.928388 -1.344815 -20.346234 -4.227684 -5.567181 39.714866 -2.354039 25.427245 -2.909004 11.520288 -1.390537 -11.395534 3.630623 -1.171067 -12.887440 5.029069 3.624655 34.421418 -2.643586 -23.112874 -18.827804 -1.077293 9.825054 4.526675 -1.265303 2.947074 11.640316 -0.601236 -2.990007 -1.201576 -0.652107 1.736917 0.640699 -3.868787 -8.618338 -0.434091 7.161887 -1.117083 8.660742 -16.887655 0.000919 -4.558435 -20.291339 -18.375495 -5.060844 6.612303 -5.090968 -17.358288 16.912454 -5.382834 9.005618 -9.472866 -6.170731 2.820722 17.738124 5.445821 -2.506860 19.375198 12.839547 -8.925034 -10.708938 4.287386 -16.389058 -20.823594 6.349111 8.563318 13.694529 6.653426 4.924273 
0.083867 0.073797 -0.065931 178.602899 22.430577 -18.230167 4.628930 -2.604857 -22.376357 -4.437491 -3.326134 45.337378 -0.969514 22.004371 0.756873 9.830471 2.627738 -14.194903 2.826243 -0.469082 -13.149040 4.734995 1.575346 37.664568 -2.896137 -20.489382 -20.099399 -4.505560 7.393093 3.539787 -0.951312 3.234710 12.024319 -1.004651 -3.572275 1.931782 -0.688522 1.868516 -1.686725 -3.633092 -9.254226 -3.055434 7.078139 -1.564513 9.012807 -22.586950 -8.770420 -1.357175 -41.870914 -21.218286 6.660970 6.996826 -1.101362 -12.107686 12.041687 -2.707179 10.127500 -11.331640 -6.783609 1.190022 22.223848 13.637546 0.579492 37.194435 16.970878 1.064869 -12.379852 4.877428 -12.967766 -17.386177 4.791354 9.069571 16.031025 7.577328 3.451431 
0.084474 0.083501 -0.080691 178.412506 23.799545 -17.919603 5.755765 -3.184159 -27.404381 -4.998669 -1.055762 50.156681 -1.366454 18.326258 5.312090 9.784337 5.619588 -18.524298 1.552709 -0.339209 -16.464047 4.443979 -0.810049 41.296423 -0.686302 -18.337913 -21.220531 -11.070732 6.375535 1.792097 -1.207927 3.255480 12.321374 -0.936011 -4.142215 1.026285 -0.686255 1.719171 -2.280731 -4.674254 -10.652549 -5.605350 8.516086 -1.680984 8.720012 -26.272071 -11.405557 0.314539 -54.157841 -20.178069 18.060914 7.676400 -22.989020 5.902825 14.053319 -5.507771 12.147529 -15.235087 -8.244140 -1.183577 25.601974 14.566046 0.818780 50.332934 14.967027 9.384936 -15.964062 25.758306 -8.749227 -19.292219 6.896977 5.167282 19.896505 9.144917 2.228291 
0.088285 0.109771 -0.097705 177.518412 25.572099 -17.388218 8.160170 -3.360872 -35.358542 -6.283023 1.721343 57.953503 -0.795734 13.353094 8.773076 5.442613 8.622233 -23.166183 0.342176 -0.848263 -22.769475 4.405681 -4.047255 49.242152 0.456363 -16.311761 -24.055752 -14.182005 5.526429 1.753475 -1.003126 3.059492 14.307735 -0.378479 -4.057991 -0.363826 0.090498 1.524689 -2.586647 -5.366175 -9.365950 -8.406142 7.923628 -3.645034 4.887967 -22.375203 -13.496315 0.551599 -57.197515 -15.640967 23.103459 3.234519 -55.871977 27.512584 20.138444 -9.865771 12.449661 -18.115809 -9.632838 -4.441883 23.814035 14.869877 1.716210 55.931967 7.414573 13.211083 -22.267059 52.951289 -3.239437 -24.911624 10.039996 0.327762 23.472168 10.485370 0.008419 
